<svg width="34" height="33" viewBox="0 0 34 33" fill="none" xmlns="http://www.w3.org/2000/svg">
<path d="M34 4.69749C32.7356 5.33995 31.3884 5.7658 29.9838 5.97256C31.4288 4.97318 32.5316 3.40272 33.0501 1.5098C31.7029 2.44026 30.2154 3.09749 28.6301 3.46426C27.3509 1.88641 25.5276 0.90918 23.5386 0.90918C19.6796 0.90918 16.5729 4.53749 16.5729 8.98549C16.5729 9.62549 16.6196 10.2409 16.7344 10.8267C10.9395 10.4993 5.81187 7.2821 2.36725 2.38118C1.76587 3.5898 1.41312 4.97318 1.41312 6.46241C1.41312 9.25872 2.65625 11.7375 4.50925 13.1726C3.38937 13.1479 2.29075 12.7713 1.36 12.1781C1.36 12.2027 1.36 12.2347 1.36 12.2667C1.36 16.1904 3.77613 19.4495 6.9445 20.2003C6.37713 20.3799 5.75875 20.4661 5.117 20.4661C4.67075 20.4661 4.22025 20.4366 3.79737 20.3283C4.7005 23.5258 7.26325 25.8766 10.3105 25.9529C7.939 28.1018 4.92788 29.3966 1.66813 29.3966C1.0965 29.3966 0.54825 29.367 0 29.2858C3.08762 31.5923 6.74687 32.9092 10.693 32.9092C23.5195 32.9092 30.532 20.6015 30.532 9.93318C30.532 9.57626 30.5214 9.23164 30.5065 8.88949C31.8899 7.75226 33.0522 6.33195 34 4.69749Z" fill="white"/>
</svg>
