<svg width="416" height="67" viewBox="0 0 416 67" fill="none" xmlns="http://www.w3.org/2000/svg">
<path d="M350.364 0H0V67H350.364L416 33.7481L350.364 0Z" fill="url(#paint0_linear_115_140)"/>
<path d="M170.461 27.8555L165.82 42H162.082L168.422 24.9375H170.801L170.461 27.8555ZM174.316 42L169.664 27.8555L169.289 24.9375H171.691L178.066 42H174.316ZM174.105 35.6484V38.4023H165.094V35.6484H174.105ZM179.438 24H182.812V39.0938L182.473 42H179.438V24ZM190.84 35.5312V35.7773C190.84 36.7227 190.738 37.5898 190.535 38.3789C190.34 39.168 190.035 39.8516 189.621 40.4297C189.207 41 188.691 41.4453 188.074 41.7656C187.465 42.0781 186.746 42.2344 185.918 42.2344C185.145 42.2344 184.473 42.0781 183.902 41.7656C183.34 41.4531 182.867 41.0117 182.484 40.4414C182.102 39.8711 181.793 39.2031 181.559 38.4375C181.324 37.6719 181.148 36.8359 181.031 35.9297V35.3906C181.148 34.4844 181.324 33.6484 181.559 32.8828C181.793 32.1172 182.102 31.4492 182.484 30.8789C182.867 30.3086 183.34 29.8672 183.902 29.5547C184.465 29.2422 185.129 29.0859 185.895 29.0859C186.73 29.0859 187.457 29.2461 188.074 29.5664C188.699 29.8789 189.215 30.3242 189.621 30.9023C190.035 31.4727 190.34 32.1523 190.535 32.9414C190.738 33.7227 190.84 34.5859 190.84 35.5312ZM187.465 35.7773V35.5312C187.465 35.0156 187.426 34.5312 187.348 34.0781C187.277 33.6172 187.152 33.2148 186.973 32.8711C186.793 32.5195 186.547 32.2422 186.234 32.0391C185.93 31.8359 185.535 31.7344 185.051 31.7344C184.59 31.7344 184.199 31.8125 183.879 31.9688C183.559 32.125 183.293 32.3438 183.082 32.625C182.879 32.9062 182.727 33.2422 182.625 33.6328C182.523 34.0156 182.461 34.4375 182.438 34.8984V36.4336C182.461 37.0508 182.562 37.5977 182.742 38.0742C182.93 38.543 183.211 38.9141 183.586 39.1875C183.969 39.4531 184.465 39.5859 185.074 39.5859C185.551 39.5859 185.945 39.4922 186.258 39.3047C186.57 39.1172 186.812 38.8516 186.984 38.5078C187.164 38.1641 187.289 37.7617 187.359 37.3008C187.43 36.832 187.465 36.3242 187.465 35.7773ZM192.398 35.7891V35.543C192.398 34.6133 192.531 33.7578 192.797 32.9766C193.062 32.1875 193.449 31.5039 193.957 30.9258C194.465 30.3477 195.09 29.8984 195.832 29.5781C196.574 29.25 197.426 29.0859 198.387 29.0859C199.348 29.0859 200.203 29.25 200.953 29.5781C201.703 29.8984 202.332 30.3477 202.84 30.9258C203.355 31.5039 203.746 32.1875 204.012 32.9766C204.277 33.7578 204.41 34.6133 204.41 35.543V35.7891C204.41 36.7109 204.277 37.5664 204.012 38.3555C203.746 39.1367 203.355 39.8203 202.84 40.4062C202.332 40.9844 201.707 41.4336 200.965 41.7539C200.223 42.0742 199.371 42.2344 198.41 42.2344C197.449 42.2344 196.594 42.0742 195.844 41.7539C195.102 41.4336 194.473 40.9844 193.957 40.4062C193.449 39.8203 193.062 39.1367 192.797 38.3555C192.531 37.5664 192.398 36.7109 192.398 35.7891ZM195.773 35.543V35.7891C195.773 36.3203 195.82 36.8164 195.914 37.2773C196.008 37.7383 196.156 38.1445 196.359 38.4961C196.57 38.8398 196.844 39.1094 197.18 39.3047C197.516 39.5 197.926 39.5977 198.41 39.5977C198.879 39.5977 199.281 39.5 199.617 39.3047C199.953 39.1094 200.223 38.8398 200.426 38.4961C200.629 38.1445 200.777 37.7383 200.871 37.2773C200.973 36.8164 201.023 36.3203 201.023 35.7891V35.543C201.023 35.0273 200.973 34.543 200.871 34.0898C200.777 33.6289 200.625 33.2227 200.414 32.8711C200.211 32.5117 199.941 32.2305 199.605 32.0273C199.27 31.8242 198.863 31.7227 198.387 31.7227C197.91 31.7227 197.504 31.8242 197.168 32.0273C196.84 32.2305 196.57 32.5117 196.359 32.8711C196.156 33.2227 196.008 33.6289 195.914 34.0898C195.82 34.543 195.773 35.0273 195.773 35.543ZM213.984 38.9648V29.3203H217.359V42H214.184L213.984 38.9648ZM214.359 36.3633L215.355 36.3398C215.355 37.1836 215.258 37.9688 215.062 38.6953C214.867 39.4141 214.574 40.0391 214.184 40.5703C213.793 41.0938 213.301 41.5039 212.707 41.8008C212.113 42.0898 211.414 42.2344 210.609 42.2344C209.992 42.2344 209.422 42.1484 208.898 41.9766C208.383 41.7969 207.938 41.5195 207.562 41.1445C207.195 40.7617 206.906 40.2734 206.695 39.6797C206.492 39.0781 206.391 38.3555 206.391 37.5117V29.3203H209.766V37.5352C209.766 37.9102 209.809 38.2266 209.895 38.4844C209.988 38.7422 210.117 38.9531 210.281 39.1172C210.445 39.2812 210.637 39.3984 210.855 39.4688C211.082 39.5391 211.332 39.5742 211.605 39.5742C212.301 39.5742 212.848 39.4336 213.246 39.1523C213.652 38.8711 213.938 38.4883 214.102 38.0039C214.273 37.5117 214.359 36.9648 214.359 36.3633ZM226.148 29.3203V31.7109H218.766V29.3203H226.148ZM220.594 26.1914H223.969V38.1797C223.969 38.5469 224.016 38.8281 224.109 39.0234C224.211 39.2188 224.359 39.3555 224.555 39.4336C224.75 39.5039 224.996 39.5391 225.293 39.5391C225.504 39.5391 225.691 39.5312 225.855 39.5156C226.027 39.4922 226.172 39.4688 226.289 39.4453L226.301 41.9297C226.012 42.0234 225.699 42.0977 225.363 42.1523C225.027 42.207 224.656 42.2344 224.25 42.2344C223.508 42.2344 222.859 42.1133 222.305 41.8711C221.758 41.6211 221.336 41.2227 221.039 40.6758C220.742 40.1289 220.594 39.4102 220.594 38.5195V26.1914ZM237.773 24.9375V42H234.258V24.9375H237.773ZM244.57 32.2266V34.9688H236.812V32.2266H244.57ZM245.391 24.9375V27.6914H236.812V24.9375H245.391ZM250.289 32.0859V42H246.914V29.3203H250.09L250.289 32.0859ZM254.109 29.2383L254.051 32.3672C253.887 32.3438 253.688 32.3242 253.453 32.3086C253.227 32.2852 253.02 32.2734 252.832 32.2734C252.355 32.2734 251.941 32.3359 251.59 32.4609C251.246 32.5781 250.957 32.7539 250.723 32.9883C250.496 33.2227 250.324 33.5078 250.207 33.8438C250.098 34.1797 250.035 34.5625 250.02 34.9922L249.34 34.7812C249.34 33.9609 249.422 33.207 249.586 32.5195C249.75 31.8242 249.988 31.2188 250.301 30.7031C250.621 30.1875 251.012 29.7891 251.473 29.5078C251.934 29.2266 252.461 29.0859 253.055 29.0859C253.242 29.0859 253.434 29.1016 253.629 29.1328C253.824 29.1562 253.984 29.1914 254.109 29.2383ZM262.148 39.1406V33.4922C262.148 33.0859 262.082 32.7383 261.949 32.4492C261.816 32.1523 261.609 31.9219 261.328 31.7578C261.055 31.5938 260.699 31.5117 260.262 31.5117C259.887 31.5117 259.562 31.5781 259.289 31.7109C259.016 31.8359 258.805 32.0195 258.656 32.2617C258.508 32.4961 258.434 32.7734 258.434 33.0938H255.059C255.059 32.5547 255.184 32.043 255.434 31.5586C255.684 31.0742 256.047 30.6484 256.523 30.2812C257 29.9062 257.566 29.6133 258.223 29.4023C258.887 29.1914 259.629 29.0859 260.449 29.0859C261.434 29.0859 262.309 29.25 263.074 29.5781C263.84 29.9062 264.441 30.3984 264.879 31.0547C265.324 31.7109 265.547 32.5312 265.547 33.5156V38.9414C265.547 39.6367 265.59 40.207 265.676 40.6523C265.762 41.0898 265.887 41.4727 266.051 41.8008V42H262.641C262.477 41.6562 262.352 41.2266 262.266 40.7109C262.188 40.1875 262.148 39.6641 262.148 39.1406ZM262.594 34.2773L262.617 36.1875H260.73C260.285 36.1875 259.898 36.2383 259.57 36.3398C259.242 36.4414 258.973 36.5859 258.762 36.7734C258.551 36.9531 258.395 37.1641 258.293 37.4062C258.199 37.6484 258.152 37.9141 258.152 38.2031C258.152 38.4922 258.219 38.7539 258.352 38.9883C258.484 39.2148 258.676 39.3945 258.926 39.5273C259.176 39.6523 259.469 39.7148 259.805 39.7148C260.312 39.7148 260.754 39.6133 261.129 39.4102C261.504 39.207 261.793 38.957 261.996 38.6602C262.207 38.3633 262.316 38.082 262.324 37.8164L263.215 39.2461C263.09 39.5664 262.918 39.8984 262.699 40.2422C262.488 40.5859 262.219 40.9102 261.891 41.2148C261.562 41.5117 261.168 41.7578 260.707 41.9531C260.246 42.1406 259.699 42.2344 259.066 42.2344C258.262 42.2344 257.531 42.0742 256.875 41.7539C256.227 41.4258 255.711 40.9766 255.328 40.4062C254.953 39.8281 254.766 39.1719 254.766 38.4375C254.766 37.7734 254.891 37.1836 255.141 36.668C255.391 36.1523 255.758 35.7188 256.242 35.3672C256.734 35.0078 257.348 34.7383 258.082 34.5586C258.816 34.3711 259.668 34.2773 260.637 34.2773H262.594ZM273.387 39.5977C273.801 39.5977 274.168 39.5195 274.488 39.3633C274.809 39.1992 275.059 38.9727 275.238 38.6836C275.426 38.3867 275.523 38.0391 275.531 37.6406H278.707C278.699 38.5312 278.461 39.3242 277.992 40.0195C277.523 40.707 276.895 41.25 276.105 41.6484C275.316 42.0391 274.434 42.2344 273.457 42.2344C272.473 42.2344 271.613 42.0703 270.879 41.7422C270.152 41.4141 269.547 40.9609 269.062 40.3828C268.578 39.7969 268.215 39.1172 267.973 38.3438C267.73 37.5625 267.609 36.7266 267.609 35.8359V35.4961C267.609 34.5977 267.73 33.7617 267.973 32.9883C268.215 32.207 268.578 31.5273 269.062 30.9492C269.547 30.3633 270.152 29.9062 270.879 29.5781C271.605 29.25 272.457 29.0859 273.434 29.0859C274.473 29.0859 275.383 29.2852 276.164 29.6836C276.953 30.082 277.57 30.6523 278.016 31.3945C278.469 32.1289 278.699 33 278.707 34.0078H275.531C275.523 33.5859 275.434 33.2031 275.262 32.8594C275.098 32.5156 274.855 32.2422 274.535 32.0391C274.223 31.8281 273.836 31.7227 273.375 31.7227C272.883 31.7227 272.48 31.8281 272.168 32.0391C271.855 32.2422 271.613 32.5234 271.441 32.8828C271.27 33.2344 271.148 33.6367 271.078 34.0898C271.016 34.5352 270.984 35.0039 270.984 35.4961V35.8359C270.984 36.3281 271.016 36.8008 271.078 37.2539C271.141 37.707 271.258 38.1094 271.43 38.4609C271.609 38.8125 271.855 39.0898 272.168 39.293C272.48 39.4961 272.887 39.5977 273.387 39.5977ZM286.875 29.3203V31.7109H279.492V29.3203H286.875ZM281.32 26.1914H284.695V38.1797C284.695 38.5469 284.742 38.8281 284.836 39.0234C284.938 39.2188 285.086 39.3555 285.281 39.4336C285.477 39.5039 285.723 39.5391 286.02 39.5391C286.23 39.5391 286.418 39.5312 286.582 39.5156C286.754 39.4922 286.898 39.4688 287.016 39.4453L287.027 41.9297C286.738 42.0234 286.426 42.0977 286.09 42.1523C285.754 42.207 285.383 42.2344 284.977 42.2344C284.234 42.2344 283.586 42.1133 283.031 41.8711C282.484 41.6211 282.062 41.2227 281.766 40.6758C281.469 40.1289 281.32 39.4102 281.32 38.5195V26.1914ZM295.641 39.1406V33.4922C295.641 33.0859 295.574 32.7383 295.441 32.4492C295.309 32.1523 295.102 31.9219 294.82 31.7578C294.547 31.5938 294.191 31.5117 293.754 31.5117C293.379 31.5117 293.055 31.5781 292.781 31.7109C292.508 31.8359 292.297 32.0195 292.148 32.2617C292 32.4961 291.926 32.7734 291.926 33.0938H288.551C288.551 32.5547 288.676 32.043 288.926 31.5586C289.176 31.0742 289.539 30.6484 290.016 30.2812C290.492 29.9062 291.059 29.6133 291.715 29.4023C292.379 29.1914 293.121 29.0859 293.941 29.0859C294.926 29.0859 295.801 29.25 296.566 29.5781C297.332 29.9062 297.934 30.3984 298.371 31.0547C298.816 31.7109 299.039 32.5312 299.039 33.5156V38.9414C299.039 39.6367 299.082 40.207 299.168 40.6523C299.254 41.0898 299.379 41.4727 299.543 41.8008V42H296.133C295.969 41.6562 295.844 41.2266 295.758 40.7109C295.68 40.1875 295.641 39.6641 295.641 39.1406ZM296.086 34.2773L296.109 36.1875H294.223C293.777 36.1875 293.391 36.2383 293.062 36.3398C292.734 36.4414 292.465 36.5859 292.254 36.7734C292.043 36.9531 291.887 37.1641 291.785 37.4062C291.691 37.6484 291.645 37.9141 291.645 38.2031C291.645 38.4922 291.711 38.7539 291.844 38.9883C291.977 39.2148 292.168 39.3945 292.418 39.5273C292.668 39.6523 292.961 39.7148 293.297 39.7148C293.805 39.7148 294.246 39.6133 294.621 39.4102C294.996 39.207 295.285 38.957 295.488 38.6602C295.699 38.3633 295.809 38.082 295.816 37.8164L296.707 39.2461C296.582 39.5664 296.41 39.8984 296.191 40.2422C295.98 40.5859 295.711 40.9102 295.383 41.2148C295.055 41.5117 294.66 41.7578 294.199 41.9531C293.738 42.1406 293.191 42.2344 292.559 42.2344C291.754 42.2344 291.023 42.0742 290.367 41.7539C289.719 41.4258 289.203 40.9766 288.82 40.4062C288.445 39.8281 288.258 39.1719 288.258 38.4375C288.258 37.7734 288.383 37.1836 288.633 36.668C288.883 36.1523 289.25 35.7188 289.734 35.3672C290.227 35.0078 290.84 34.7383 291.574 34.5586C292.309 34.3711 293.16 34.2773 294.129 34.2773H296.086ZM305.203 24V42H301.816V24H305.203ZM314.848 38.4961C314.848 38.2539 314.777 38.0352 314.637 37.8398C314.496 37.6445 314.234 37.4648 313.852 37.3008C313.477 37.1289 312.934 36.9727 312.223 36.832C311.582 36.6914 310.984 36.5156 310.43 36.3047C309.883 36.0859 309.406 35.8242 309 35.5195C308.602 35.2148 308.289 34.8555 308.062 34.4414C307.836 34.0195 307.723 33.5391 307.723 33C307.723 32.4688 307.836 31.9688 308.062 31.5C308.297 31.0312 308.629 30.6172 309.059 30.2578C309.496 29.8906 310.027 29.6055 310.652 29.4023C311.285 29.1914 311.996 29.0859 312.785 29.0859C313.887 29.0859 314.832 29.2617 315.621 29.6133C316.418 29.9648 317.027 30.4492 317.449 31.0664C317.879 31.6758 318.094 32.3711 318.094 33.1523H314.719C314.719 32.8242 314.648 32.5312 314.508 32.2734C314.375 32.0078 314.164 31.8008 313.875 31.6523C313.594 31.4961 313.227 31.418 312.773 31.418C312.398 31.418 312.074 31.4844 311.801 31.6172C311.527 31.7422 311.316 31.9141 311.168 32.1328C311.027 32.3438 310.957 32.5781 310.957 32.8359C310.957 33.0312 310.996 33.207 311.074 33.3633C311.16 33.5117 311.297 33.6484 311.484 33.7734C311.672 33.8984 311.914 34.0156 312.211 34.125C312.516 34.2266 312.891 34.3203 313.336 34.4062C314.25 34.5938 315.066 34.8398 315.785 35.1445C316.504 35.4414 317.074 35.8477 317.496 36.3633C317.918 36.8711 318.129 37.5391 318.129 38.3672C318.129 38.9297 318.004 39.4453 317.754 39.9141C317.504 40.3828 317.145 40.793 316.676 41.1445C316.207 41.4883 315.645 41.7578 314.988 41.9531C314.34 42.1406 313.609 42.2344 312.797 42.2344C311.617 42.2344 310.617 42.0234 309.797 41.6016C308.984 41.1797 308.367 40.6445 307.945 39.9961C307.531 39.3398 307.324 38.668 307.324 37.9805H310.523C310.539 38.4414 310.656 38.8125 310.875 39.0938C311.102 39.375 311.387 39.5781 311.73 39.7031C312.082 39.8281 312.461 39.8906 312.867 39.8906C313.305 39.8906 313.668 39.832 313.957 39.7148C314.246 39.5898 314.465 39.4258 314.613 39.2227C314.77 39.0117 314.848 38.7695 314.848 38.4961Z" fill="#04101A"/>
<defs>
<linearGradient id="paint0_linear_115_140" x1="346" y1="0" x2="15" y2="0" gradientUnits="userSpaceOnUse">
<stop stop-color="#D73246"/>
<stop offset="1" stop-color="#D73246" stop-opacity="0"/>
</linearGradient>
</defs>
</svg>
