<svg width="416" height="67" viewBox="0 0 416 67" fill="none" xmlns="http://www.w3.org/2000/svg">
<path d="M350.364 0H0V67H350.364L416 33.7481L350.364 0Z" fill="url(#paint0_linear_198_139)"/>
<path d="M174.492 39.2578V42H165.902V39.2578H174.492ZM167.039 24.9375V42H163.523V24.9375H167.039ZM182.133 42.2344C181.148 42.2344 180.266 42.0781 179.484 41.7656C178.703 41.4453 178.039 41.0039 177.492 40.4414C176.953 39.8789 176.539 39.2266 176.25 38.4844C175.961 37.7344 175.816 36.9375 175.816 36.0938V35.625C175.816 34.6641 175.953 33.7852 176.227 32.9883C176.5 32.1914 176.891 31.5 177.398 30.9141C177.914 30.3281 178.539 29.8789 179.273 29.5664C180.008 29.2461 180.836 29.0859 181.758 29.0859C182.656 29.0859 183.453 29.2344 184.148 29.5312C184.844 29.8281 185.426 30.25 185.895 30.7969C186.371 31.3438 186.73 32 186.973 32.7656C187.215 33.5234 187.336 34.3672 187.336 35.2969V36.7031H177.258V34.4531H184.02V34.1953C184.02 33.7266 183.934 33.3086 183.762 32.9414C183.598 32.5664 183.348 32.2695 183.012 32.0508C182.676 31.832 182.246 31.7227 181.723 31.7227C181.277 31.7227 180.895 31.8203 180.574 32.0156C180.254 32.2109 179.992 32.4844 179.789 32.8359C179.594 33.1875 179.445 33.6016 179.344 34.0781C179.25 34.5469 179.203 35.0625 179.203 35.625V36.0938C179.203 36.6016 179.273 37.0703 179.414 37.5C179.562 37.9297 179.77 38.3008 180.035 38.6133C180.309 38.9258 180.637 39.168 181.02 39.3398C181.41 39.5117 181.852 39.5977 182.344 39.5977C182.953 39.5977 183.52 39.4805 184.043 39.2461C184.574 39.0039 185.031 38.6406 185.414 38.1562L187.055 39.9375C186.789 40.3203 186.426 40.6875 185.965 41.0391C185.512 41.3906 184.965 41.6797 184.324 41.9062C183.684 42.125 182.953 42.2344 182.133 42.2344ZM196.102 39.1406V33.4922C196.102 33.0859 196.035 32.7383 195.902 32.4492C195.77 32.1523 195.562 31.9219 195.281 31.7578C195.008 31.5938 194.652 31.5117 194.215 31.5117C193.84 31.5117 193.516 31.5781 193.242 31.7109C192.969 31.8359 192.758 32.0195 192.609 32.2617C192.461 32.4961 192.387 32.7734 192.387 33.0938H189.012C189.012 32.5547 189.137 32.043 189.387 31.5586C189.637 31.0742 190 30.6484 190.477 30.2812C190.953 29.9062 191.52 29.6133 192.176 29.4023C192.84 29.1914 193.582 29.0859 194.402 29.0859C195.387 29.0859 196.262 29.25 197.027 29.5781C197.793 29.9062 198.395 30.3984 198.832 31.0547C199.277 31.7109 199.5 32.5312 199.5 33.5156V38.9414C199.5 39.6367 199.543 40.207 199.629 40.6523C199.715 41.0898 199.84 41.4727 200.004 41.8008V42H196.594C196.43 41.6562 196.305 41.2266 196.219 40.7109C196.141 40.1875 196.102 39.6641 196.102 39.1406ZM196.547 34.2773L196.57 36.1875H194.684C194.238 36.1875 193.852 36.2383 193.523 36.3398C193.195 36.4414 192.926 36.5859 192.715 36.7734C192.504 36.9531 192.348 37.1641 192.246 37.4062C192.152 37.6484 192.105 37.9141 192.105 38.2031C192.105 38.4922 192.172 38.7539 192.305 38.9883C192.438 39.2148 192.629 39.3945 192.879 39.5273C193.129 39.6523 193.422 39.7148 193.758 39.7148C194.266 39.7148 194.707 39.6133 195.082 39.4102C195.457 39.207 195.746 38.957 195.949 38.6602C196.16 38.3633 196.27 38.082 196.277 37.8164L197.168 39.2461C197.043 39.5664 196.871 39.8984 196.652 40.2422C196.441 40.5859 196.172 40.9102 195.844 41.2148C195.516 41.5117 195.121 41.7578 194.66 41.9531C194.199 42.1406 193.652 42.2344 193.02 42.2344C192.215 42.2344 191.484 42.0742 190.828 41.7539C190.18 41.4258 189.664 40.9766 189.281 40.4062C188.906 39.8281 188.719 39.1719 188.719 38.4375C188.719 37.7734 188.844 37.1836 189.094 36.668C189.344 36.1523 189.711 35.7188 190.195 35.3672C190.688 35.0078 191.301 34.7383 192.035 34.5586C192.77 34.3711 193.621 34.2773 194.59 34.2773H196.547ZM205.477 32.0859V42H202.102V29.3203H205.277L205.477 32.0859ZM209.297 29.2383L209.238 32.3672C209.074 32.3438 208.875 32.3242 208.641 32.3086C208.414 32.2852 208.207 32.2734 208.02 32.2734C207.543 32.2734 207.129 32.3359 206.777 32.4609C206.434 32.5781 206.145 32.7539 205.91 32.9883C205.684 33.2227 205.512 33.5078 205.395 33.8438C205.285 34.1797 205.223 34.5625 205.207 34.9922L204.527 34.7812C204.527 33.9609 204.609 33.207 204.773 32.5195C204.938 31.8242 205.176 31.2188 205.488 30.7031C205.809 30.1875 206.199 29.7891 206.66 29.5078C207.121 29.2266 207.648 29.0859 208.242 29.0859C208.43 29.0859 208.621 29.1016 208.816 29.1328C209.012 29.1562 209.172 29.1914 209.297 29.2383ZM214.195 32.0273V42H210.82V29.3203H213.984L214.195 32.0273ZM213.703 35.2148H212.789C212.789 34.2773 212.91 33.4336 213.152 32.6836C213.395 31.9258 213.734 31.2812 214.172 30.75C214.609 30.2109 215.129 29.8008 215.73 29.5195C216.34 29.2305 217.02 29.0859 217.77 29.0859C218.363 29.0859 218.906 29.1719 219.398 29.3438C219.891 29.5156 220.312 29.7891 220.664 30.1641C221.023 30.5391 221.297 31.0352 221.484 31.6523C221.68 32.2695 221.777 33.0234 221.777 33.9141V42H218.379V33.9023C218.379 33.3398 218.301 32.9023 218.145 32.5898C217.988 32.2773 217.758 32.0586 217.453 31.9336C217.156 31.8008 216.789 31.7344 216.352 31.7344C215.898 31.7344 215.504 31.8242 215.168 32.0039C214.84 32.1836 214.566 32.4336 214.348 32.7539C214.137 33.0664 213.977 33.4336 213.867 33.8555C213.758 34.2773 213.703 34.7305 213.703 35.2148ZM232.137 24.9375H235.113L239.496 37.4648L243.879 24.9375H246.855L240.691 42H238.301L232.137 24.9375ZM230.531 24.9375H233.496L234.035 37.1484V42H230.531V24.9375ZM245.496 24.9375H248.473V42H244.957V37.1484L245.496 24.9375ZM250.805 35.7891V35.543C250.805 34.6133 250.938 33.7578 251.203 32.9766C251.469 32.1875 251.855 31.5039 252.363 30.9258C252.871 30.3477 253.496 29.8984 254.238 29.5781C254.98 29.25 255.832 29.0859 256.793 29.0859C257.754 29.0859 258.609 29.25 259.359 29.5781C260.109 29.8984 260.738 30.3477 261.246 30.9258C261.762 31.5039 262.152 32.1875 262.418 32.9766C262.684 33.7578 262.816 34.6133 262.816 35.543V35.7891C262.816 36.7109 262.684 37.5664 262.418 38.3555C262.152 39.1367 261.762 39.8203 261.246 40.4062C260.738 40.9844 260.113 41.4336 259.371 41.7539C258.629 42.0742 257.777 42.2344 256.816 42.2344C255.855 42.2344 255 42.0742 254.25 41.7539C253.508 41.4336 252.879 40.9844 252.363 40.4062C251.855 39.8203 251.469 39.1367 251.203 38.3555C250.938 37.5664 250.805 36.7109 250.805 35.7891ZM254.18 35.543V35.7891C254.18 36.3203 254.227 36.8164 254.32 37.2773C254.414 37.7383 254.562 38.1445 254.766 38.4961C254.977 38.8398 255.25 39.1094 255.586 39.3047C255.922 39.5 256.332 39.5977 256.816 39.5977C257.285 39.5977 257.688 39.5 258.023 39.3047C258.359 39.1094 258.629 38.8398 258.832 38.4961C259.035 38.1445 259.184 37.7383 259.277 37.2773C259.379 36.8164 259.43 36.3203 259.43 35.7891V35.543C259.43 35.0273 259.379 34.543 259.277 34.0898C259.184 33.6289 259.031 33.2227 258.82 32.8711C258.617 32.5117 258.348 32.2305 258.012 32.0273C257.676 31.8242 257.27 31.7227 256.793 31.7227C256.316 31.7227 255.91 31.8242 255.574 32.0273C255.246 32.2305 254.977 32.5117 254.766 32.8711C254.562 33.2227 254.414 33.6289 254.32 34.0898C254.227 34.543 254.18 35.0273 254.18 35.543ZM268.266 32.0859V42H264.891V29.3203H268.066L268.266 32.0859ZM272.086 29.2383L272.027 32.3672C271.863 32.3438 271.664 32.3242 271.43 32.3086C271.203 32.2852 270.996 32.2734 270.809 32.2734C270.332 32.2734 269.918 32.3359 269.566 32.4609C269.223 32.5781 268.934 32.7539 268.699 32.9883C268.473 33.2227 268.301 33.5078 268.184 33.8438C268.074 34.1797 268.012 34.5625 267.996 34.9922L267.316 34.7812C267.316 33.9609 267.398 33.207 267.562 32.5195C267.727 31.8242 267.965 31.2188 268.277 30.7031C268.598 30.1875 268.988 29.7891 269.449 29.5078C269.91 29.2266 270.438 29.0859 271.031 29.0859C271.219 29.0859 271.41 29.1016 271.605 29.1328C271.801 29.1562 271.961 29.1914 272.086 29.2383ZM279.281 42.2344C278.297 42.2344 277.414 42.0781 276.633 41.7656C275.852 41.4453 275.188 41.0039 274.641 40.4414C274.102 39.8789 273.688 39.2266 273.398 38.4844C273.109 37.7344 272.965 36.9375 272.965 36.0938V35.625C272.965 34.6641 273.102 33.7852 273.375 32.9883C273.648 32.1914 274.039 31.5 274.547 30.9141C275.062 30.3281 275.688 29.8789 276.422 29.5664C277.156 29.2461 277.984 29.0859 278.906 29.0859C279.805 29.0859 280.602 29.2344 281.297 29.5312C281.992 29.8281 282.574 30.25 283.043 30.7969C283.52 31.3438 283.879 32 284.121 32.7656C284.363 33.5234 284.484 34.3672 284.484 35.2969V36.7031H274.406V34.4531H281.168V34.1953C281.168 33.7266 281.082 33.3086 280.91 32.9414C280.746 32.5664 280.496 32.2695 280.16 32.0508C279.824 31.832 279.395 31.7227 278.871 31.7227C278.426 31.7227 278.043 31.8203 277.723 32.0156C277.402 32.2109 277.141 32.4844 276.938 32.8359C276.742 33.1875 276.594 33.6016 276.492 34.0781C276.398 34.5469 276.352 35.0625 276.352 35.625V36.0938C276.352 36.6016 276.422 37.0703 276.562 37.5C276.711 37.9297 276.918 38.3008 277.184 38.6133C277.457 38.9258 277.785 39.168 278.168 39.3398C278.559 39.5117 279 39.5977 279.492 39.5977C280.102 39.5977 280.668 39.4805 281.191 39.2461C281.723 39.0039 282.18 38.6406 282.562 38.1562L284.203 39.9375C283.938 40.3203 283.574 40.6875 283.113 41.0391C282.66 41.3906 282.113 41.6797 281.473 41.9062C280.832 42.125 280.102 42.2344 279.281 42.2344Z" fill="white"/>
<defs>
<linearGradient id="paint0_linear_198_139" x1="346" y1="0" x2="15" y2="0" gradientUnits="userSpaceOnUse">
<stop stop-color="#D73246"/>
<stop offset="1" stop-color="#D73246" stop-opacity="0"/>
</linearGradient>
</defs>
</svg>
