<svg width="1109" height="155" viewBox="0 0 1109 155" fill="none" xmlns="http://www.w3.org/2000/svg">
<path d="M0 154.5V0L825.5 1.5L855 77L825.5 154.5H0Z" fill="#04101A"/>
<path d="M0 154.5V0L825.5 1.5L855 77L825.5 154.5H0Z" fill="#D73246" fill-opacity="0.5"/>
<path d="M888 75.75L856 1.75H920L949.5 75.75L920 152.75H856L888 75.75Z" fill="#D73246"/>
<path d="M982.5 75.75L950.5 1.75H1014.5L1044 75.75L1014.5 152.75H950.5L982.5 75.75Z" fill="#D73246"/>
<path d="M1077 75.75L1045 1.75H1109V75.75V152.75H1045L1077 75.75Z" fill="#D73246"/>
<path d="M85.957 85.7266V91H71.582V85.7266H85.957ZM74.0234 62.5625V91H67.168V62.5625H74.0234Z" fill="white"/>
<path d="M108.418 85.7266V91H93.2617V85.7266H108.418ZM95.7031 62.5625V91H88.8477V62.5625H95.7031ZM106.465 73.8516V78.9492H93.2617V73.8516H106.465ZM108.477 62.5625V67.8555H93.2617V62.5625H108.477Z" fill="white"/>
<path d="M123.281 68.5391L116.348 91H108.984L119.434 62.5625H124.102L123.281 68.5391ZM129.023 91L122.07 68.5391L121.172 62.5625H125.898L136.406 91H129.023ZM128.75 80.3945V85.6875H114.16V80.3945H128.75Z" fill="white"/>
<path d="M138.496 62.5625H149.688C151.875 62.5625 153.776 62.888 155.391 63.5391C157.005 64.1901 158.249 65.1536 159.121 66.4297C160.007 67.7057 160.449 69.2812 160.449 71.1562C160.449 72.7839 160.195 74.1445 159.688 75.2383C159.18 76.332 158.47 77.237 157.559 77.9531C156.66 78.6562 155.612 79.2357 154.414 79.6914L152.168 80.9609H142.773L142.734 75.668H149.688C150.56 75.668 151.283 75.5117 151.855 75.1992C152.428 74.8867 152.858 74.444 153.145 73.8711C153.444 73.2852 153.594 72.5885 153.594 71.7812C153.594 70.9609 153.444 70.2578 153.145 69.6719C152.845 69.0859 152.402 68.6367 151.816 68.3242C151.243 68.0117 150.534 67.8555 149.688 67.8555H145.352V91H138.496V62.5625ZM154.062 91L147.773 78.4219L155.039 78.3828L161.406 90.707V91H154.062Z" fill="white"/>
<path d="M188.34 62.5625V91H181.504L171.445 73.3047V91H164.59V62.5625H171.445L181.504 80.2578V62.5625H188.34Z" fill="white"/>
<path d="M214.688 68.5391L207.754 91H200.391L210.84 62.5625H215.508L214.688 68.5391ZM220.43 91L213.477 68.5391L212.578 62.5625H217.305L227.812 91H220.43ZM220.156 80.3945V85.6875H205.566V80.3945H220.156Z" fill="white"/>
<path d="M241.504 78.9102H234.18L234.141 74.418H240.078C241.146 74.418 241.999 74.3008 242.637 74.0664C243.275 73.819 243.737 73.4609 244.023 72.9922C244.323 72.5234 244.473 71.9375 244.473 71.2344C244.473 70.4271 244.323 69.776 244.023 69.2812C243.724 68.7865 243.249 68.4284 242.598 68.207C241.96 67.9727 241.133 67.8555 240.117 67.8555H236.758V91H229.902V62.5625H240.117C241.875 62.5625 243.444 62.7253 244.824 63.0508C246.204 63.3633 247.376 63.8451 248.34 64.4961C249.316 65.1471 250.059 65.9674 250.566 66.957C251.074 67.9336 251.328 69.0859 251.328 70.4141C251.328 71.5729 251.081 72.6602 250.586 73.6758C250.091 74.6914 249.264 75.5182 248.105 76.1562C246.96 76.7812 245.391 77.1068 243.398 77.1328L241.504 78.9102ZM241.23 91H232.52L234.863 85.7266H241.23C242.168 85.7266 242.917 85.5833 243.477 85.2969C244.049 84.9974 244.46 84.6068 244.707 84.125C244.967 83.6302 245.098 83.0833 245.098 82.4844C245.098 81.7552 244.974 81.1237 244.727 80.5898C244.492 80.056 244.115 79.6458 243.594 79.3594C243.073 79.0599 242.376 78.9102 241.504 78.9102H235.742L235.781 74.418H242.676L244.277 76.2148C246.178 76.1367 247.682 76.4036 248.789 77.0156C249.909 77.6276 250.71 78.4349 251.191 79.4375C251.673 80.4401 251.914 81.4883 251.914 82.582C251.914 84.444 251.51 86 250.703 87.25C249.909 88.5 248.717 89.4375 247.129 90.0625C245.54 90.6875 243.574 91 241.23 91Z" fill="white"/>
<path d="M279.785 76.2148V77.3672C279.785 79.5417 279.479 81.4948 278.867 83.2266C278.268 84.9453 277.415 86.4167 276.309 87.6406C275.202 88.8516 273.893 89.7826 272.383 90.4336C270.872 91.0716 269.206 91.3906 267.383 91.3906C265.547 91.3906 263.867 91.0716 262.344 90.4336C260.833 89.7826 259.518 88.8516 258.398 87.6406C257.292 86.4167 256.432 84.9453 255.82 83.2266C255.221 81.4948 254.922 79.5417 254.922 77.3672V76.2148C254.922 74.0404 255.221 72.0872 255.82 70.3555C256.432 68.6237 257.285 67.1523 258.379 65.9414C259.486 64.7174 260.794 63.7865 262.305 63.1484C263.828 62.4974 265.508 62.1719 267.344 62.1719C269.167 62.1719 270.833 62.4974 272.344 63.1484C273.867 63.7865 275.182 64.7174 276.289 65.9414C277.396 67.1523 278.255 68.6237 278.867 70.3555C279.479 72.0872 279.785 74.0404 279.785 76.2148ZM272.832 77.3672V76.1758C272.832 74.7695 272.708 73.5326 272.461 72.4648C272.227 71.3841 271.875 70.4792 271.406 69.75C270.938 69.0208 270.358 68.474 269.668 68.1094C268.991 67.7318 268.216 67.543 267.344 67.543C266.432 67.543 265.638 67.7318 264.961 68.1094C264.284 68.474 263.717 69.0208 263.262 69.75C262.806 70.4792 262.461 71.3841 262.227 72.4648C262.005 73.5326 261.895 74.7695 261.895 76.1758V77.3672C261.895 78.7604 262.005 79.9974 262.227 81.0781C262.461 82.1458 262.806 83.0508 263.262 83.793C263.73 84.5352 264.303 85.0951 264.98 85.4727C265.671 85.8503 266.471 86.0391 267.383 86.0391C268.255 86.0391 269.03 85.8503 269.707 85.4727C270.384 85.0951 270.951 84.5352 271.406 83.793C271.875 83.0508 272.227 82.1458 272.461 81.0781C272.708 79.9974 272.832 78.7604 272.832 77.3672Z" fill="white"/>
<path d="M298.77 62.5625H305.625V81.1367C305.625 83.3503 305.163 85.2253 304.238 86.7617C303.314 88.2852 302.018 89.4375 300.352 90.2188C298.685 91 296.725 91.3906 294.473 91.3906C292.246 91.3906 290.286 91 288.594 90.2188C286.914 89.4375 285.599 88.2852 284.648 86.7617C283.711 85.2253 283.242 83.3503 283.242 81.1367V62.5625H290.117V81.1367C290.117 82.3086 290.286 83.2656 290.625 84.0078C290.964 84.737 291.458 85.2708 292.109 85.6094C292.76 85.9479 293.548 86.1172 294.473 86.1172C295.41 86.1172 296.198 85.9479 296.836 85.6094C297.474 85.2708 297.956 84.737 298.281 84.0078C298.607 83.2656 298.77 82.3086 298.77 81.1367V62.5625Z" fill="white"/>
<path d="M323.711 62.5625V91H316.855V62.5625H323.711ZM332.266 62.5625V67.8555H308.496V62.5625H332.266Z" fill="white"/>
<path d="M360.137 81.3711H366.973C366.882 83.3503 366.348 85.0951 365.371 86.6055C364.395 88.1159 363.04 89.2943 361.309 90.1406C359.59 90.974 357.559 91.3906 355.215 91.3906C353.314 91.3906 351.615 91.0716 350.117 90.4336C348.633 89.7956 347.37 88.8776 346.328 87.6797C345.299 86.4818 344.512 85.0299 343.965 83.3242C343.431 81.6185 343.164 79.6979 343.164 77.5625V76.0195C343.164 73.8841 343.444 71.9635 344.004 70.2578C344.577 68.5391 345.384 67.0807 346.426 65.8828C347.48 64.6719 348.743 63.7474 350.215 63.1094C351.686 62.4714 353.32 62.1523 355.117 62.1523C357.591 62.1523 359.681 62.5951 361.387 63.4805C363.092 64.3659 364.414 65.5833 365.352 67.1328C366.289 68.6693 366.842 70.4206 367.012 72.3867H360.176C360.15 71.319 359.967 70.4271 359.629 69.7109C359.29 68.9818 358.757 68.4349 358.027 68.0703C357.298 67.7057 356.328 67.5234 355.117 67.5234C354.271 67.5234 353.535 67.6797 352.91 67.9922C352.285 68.3047 351.764 68.7995 351.348 69.4766C350.931 70.1536 350.618 71.0326 350.41 72.1133C350.215 73.181 350.117 74.4701 350.117 75.9805V77.5625C350.117 79.0729 350.208 80.362 350.391 81.4297C350.573 82.4974 350.866 83.3698 351.27 84.0469C351.673 84.724 352.194 85.2253 352.832 85.5508C353.483 85.8633 354.277 86.0195 355.215 86.0195C356.257 86.0195 357.135 85.8568 357.852 85.5312C358.568 85.1927 359.121 84.6849 359.512 84.0078C359.902 83.3177 360.111 82.4388 360.137 81.3711Z" fill="white"/>
<path d="M394.277 76.2148V77.3672C394.277 79.5417 393.971 81.4948 393.359 83.2266C392.76 84.9453 391.908 86.4167 390.801 87.6406C389.694 88.8516 388.385 89.7826 386.875 90.4336C385.365 91.0716 383.698 91.3906 381.875 91.3906C380.039 91.3906 378.359 91.0716 376.836 90.4336C375.326 89.7826 374.01 88.8516 372.891 87.6406C371.784 86.4167 370.924 84.9453 370.312 83.2266C369.714 81.4948 369.414 79.5417 369.414 77.3672V76.2148C369.414 74.0404 369.714 72.0872 370.312 70.3555C370.924 68.6237 371.777 67.1523 372.871 65.9414C373.978 64.7174 375.286 63.7865 376.797 63.1484C378.32 62.4974 380 62.1719 381.836 62.1719C383.659 62.1719 385.326 62.4974 386.836 63.1484C388.359 63.7865 389.674 64.7174 390.781 65.9414C391.888 67.1523 392.747 68.6237 393.359 70.3555C393.971 72.0872 394.277 74.0404 394.277 76.2148ZM387.324 77.3672V76.1758C387.324 74.7695 387.201 73.5326 386.953 72.4648C386.719 71.3841 386.367 70.4792 385.898 69.75C385.43 69.0208 384.85 68.474 384.16 68.1094C383.483 67.7318 382.708 67.543 381.836 67.543C380.924 67.543 380.13 67.7318 379.453 68.1094C378.776 68.474 378.21 69.0208 377.754 69.75C377.298 70.4792 376.953 71.3841 376.719 72.4648C376.497 73.5326 376.387 74.7695 376.387 76.1758V77.3672C376.387 78.7604 376.497 79.9974 376.719 81.0781C376.953 82.1458 377.298 83.0508 377.754 83.793C378.223 84.5352 378.796 85.0951 379.473 85.4727C380.163 85.8503 380.964 86.0391 381.875 86.0391C382.747 86.0391 383.522 85.8503 384.199 85.4727C384.876 85.0951 385.443 84.5352 385.898 83.793C386.367 83.0508 386.719 82.1458 386.953 81.0781C387.201 79.9974 387.324 78.7604 387.324 77.3672Z" fill="white"/>
<path d="M401.23 62.5625H406.816L413.164 82.3477L419.512 62.5625H425.098L415.43 91H410.898L401.23 62.5625ZM397.832 62.5625H403.613L404.688 84.3594V91H397.832V62.5625ZM422.715 62.5625H428.516V91H421.641V84.3594L422.715 62.5625Z" fill="white"/>
<path d="M444.258 81.3516H437.188V76.0586H444.258C445.221 76.0586 446.003 75.8958 446.602 75.5703C447.201 75.2448 447.637 74.7956 447.91 74.2227C448.197 73.6367 448.34 72.9792 448.34 72.25C448.34 71.4688 448.197 70.7461 447.91 70.082C447.637 69.418 447.201 68.8841 446.602 68.4805C446.003 68.0638 445.221 67.8555 444.258 67.8555H439.766V91H432.91V62.5625H444.258C446.536 62.5625 448.496 62.9792 450.137 63.8125C451.79 64.6458 453.06 65.7917 453.945 67.25C454.831 68.6953 455.273 70.349 455.273 72.2109C455.273 74.0469 454.831 75.6484 453.945 77.0156C453.06 78.3828 451.79 79.4505 450.137 80.2188C448.496 80.974 446.536 81.3516 444.258 81.3516Z" fill="white"/>
<path d="M474.395 62.5625H481.25V81.1367C481.25 83.3503 480.788 85.2253 479.863 86.7617C478.939 88.2852 477.643 89.4375 475.977 90.2188C474.31 91 472.35 91.3906 470.098 91.3906C467.871 91.3906 465.911 91 464.219 90.2188C462.539 89.4375 461.224 88.2852 460.273 86.7617C459.336 85.2253 458.867 83.3503 458.867 81.1367V62.5625H465.742V81.1367C465.742 82.3086 465.911 83.2656 466.25 84.0078C466.589 84.737 467.083 85.2708 467.734 85.6094C468.385 85.9479 469.173 86.1172 470.098 86.1172C471.035 86.1172 471.823 85.9479 472.461 85.6094C473.099 85.2708 473.581 84.737 473.906 84.0078C474.232 83.2656 474.395 82.3086 474.395 81.1367V62.5625Z" fill="white"/>
<path d="M499.336 62.5625V91H492.48V62.5625H499.336ZM507.891 62.5625V67.8555H484.121V62.5625H507.891Z" fill="white"/>
<path d="M530.371 85.7266V91H515.215V85.7266H530.371ZM517.656 62.5625V91H510.801V62.5625H517.656ZM528.418 73.8516V78.9492H515.215V73.8516H528.418ZM530.43 62.5625V67.8555H515.215V62.5625H530.43Z" fill="white"/>
<path d="M533.184 62.5625H544.375C546.562 62.5625 548.464 62.888 550.078 63.5391C551.693 64.1901 552.936 65.1536 553.809 66.4297C554.694 67.7057 555.137 69.2812 555.137 71.1562C555.137 72.7839 554.883 74.1445 554.375 75.2383C553.867 76.332 553.158 77.237 552.246 77.9531C551.348 78.6562 550.299 79.2357 549.102 79.6914L546.855 80.9609H537.461L537.422 75.668H544.375C545.247 75.668 545.97 75.5117 546.543 75.1992C547.116 74.8867 547.546 74.444 547.832 73.8711C548.132 73.2852 548.281 72.5885 548.281 71.7812C548.281 70.9609 548.132 70.2578 547.832 69.6719C547.533 69.0859 547.09 68.6367 546.504 68.3242C545.931 68.0117 545.221 67.8555 544.375 67.8555H540.039V91H533.184V62.5625ZM548.75 91L542.461 78.4219L549.727 78.3828L556.094 90.707V91H548.75Z" fill="white"/>
<path d="M592.5 75.8047V87.4844C592.018 88.0182 591.276 88.5911 590.273 89.2031C589.284 89.8021 588.034 90.3164 586.523 90.7461C585.013 91.1758 583.236 91.3906 581.191 91.3906C579.303 91.3906 577.591 91.0911 576.055 90.4922C574.518 89.8802 573.197 88.9883 572.09 87.8164C570.996 86.6315 570.15 85.1862 569.551 83.4805C568.965 81.7617 568.672 79.7956 568.672 77.582V76C568.672 73.7865 568.971 71.8203 569.57 70.1016C570.169 68.3828 571.009 66.9375 572.09 65.7656C573.184 64.5807 574.466 63.6823 575.938 63.0703C577.422 62.4583 579.049 62.1523 580.82 62.1523C583.438 62.1523 585.566 62.569 587.207 63.4023C588.848 64.2227 590.091 65.362 590.938 66.8203C591.784 68.2656 592.298 69.9388 592.48 71.8398H585.898C585.768 70.9023 585.521 70.1081 585.156 69.457C584.805 68.793 584.297 68.2917 583.633 67.9531C582.969 67.6016 582.109 67.4258 581.055 67.4258C580.234 67.4258 579.486 67.6016 578.809 67.9531C578.145 68.3047 577.578 68.8385 577.109 69.5547C576.641 70.2578 576.276 71.1432 576.016 72.2109C575.768 73.2786 575.645 74.5286 575.645 75.9609V77.582C575.645 79.0013 575.762 80.2448 575.996 81.3125C576.243 82.3802 576.608 83.2721 577.09 83.9883C577.585 84.6914 578.21 85.2253 578.965 85.5898C579.733 85.9414 580.638 86.1172 581.68 86.1172C582.409 86.1172 583.034 86.0586 583.555 85.9414C584.076 85.8112 584.505 85.6549 584.844 85.4727C585.195 85.2773 585.462 85.0951 585.645 84.9258V80.5117H580.879V75.8047H592.5Z" fill="white"/>
<path d="M596.504 62.5625H607.695C609.883 62.5625 611.784 62.888 613.398 63.5391C615.013 64.1901 616.257 65.1536 617.129 66.4297C618.014 67.7057 618.457 69.2812 618.457 71.1562C618.457 72.7839 618.203 74.1445 617.695 75.2383C617.188 76.332 616.478 77.237 615.566 77.9531C614.668 78.6562 613.62 79.2357 612.422 79.6914L610.176 80.9609H600.781L600.742 75.668H607.695C608.568 75.668 609.29 75.5117 609.863 75.1992C610.436 74.8867 610.866 74.444 611.152 73.8711C611.452 73.2852 611.602 72.5885 611.602 71.7812C611.602 70.9609 611.452 70.2578 611.152 69.6719C610.853 69.0859 610.41 68.6367 609.824 68.3242C609.251 68.0117 608.542 67.8555 607.695 67.8555H603.359V91H596.504V62.5625ZM612.07 91L605.781 78.4219L613.047 78.3828L619.414 90.707V91H612.07Z" fill="white"/>
<path d="M634.648 68.5391L627.715 91H620.352L630.801 62.5625H635.469L634.648 68.5391ZM640.391 91L633.438 68.5391L632.539 62.5625H637.266L647.773 91H640.391ZM640.117 80.3945V85.6875H625.527V80.3945H640.117Z" fill="white"/>
<path d="M661.211 81.3516H654.141V76.0586H661.211C662.174 76.0586 662.956 75.8958 663.555 75.5703C664.154 75.2448 664.59 74.7956 664.863 74.2227C665.15 73.6367 665.293 72.9792 665.293 72.25C665.293 71.4688 665.15 70.7461 664.863 70.082C664.59 69.418 664.154 68.8841 663.555 68.4805C662.956 68.0638 662.174 67.8555 661.211 67.8555H656.719V91H649.863V62.5625H661.211C663.49 62.5625 665.449 62.9792 667.09 63.8125C668.743 64.6458 670.013 65.7917 670.898 67.25C671.784 68.6953 672.227 70.349 672.227 72.2109C672.227 74.0469 671.784 75.6484 670.898 77.0156C670.013 78.3828 668.743 79.4505 667.09 80.2188C665.449 80.974 663.49 81.3516 661.211 81.3516Z" fill="white"/>
<path d="M695.078 73.8516V79.125H680.488V73.8516H695.078ZM682.773 62.5625V91H675.918V62.5625H682.773ZM699.688 62.5625V91H692.852V62.5625H699.688Z" fill="white"/>
<path d="M711.328 62.5625V91H704.492V62.5625H711.328Z" fill="white"/>
<path d="M732.324 81.3711H739.16C739.069 83.3503 738.535 85.0951 737.559 86.6055C736.582 88.1159 735.228 89.2943 733.496 90.1406C731.777 90.974 729.746 91.3906 727.402 91.3906C725.501 91.3906 723.802 91.0716 722.305 90.4336C720.82 89.7956 719.557 88.8776 718.516 87.6797C717.487 86.4818 716.699 85.0299 716.152 83.3242C715.618 81.6185 715.352 79.6979 715.352 77.5625V76.0195C715.352 73.8841 715.632 71.9635 716.191 70.2578C716.764 68.5391 717.572 67.0807 718.613 65.8828C719.668 64.6719 720.931 63.7474 722.402 63.1094C723.874 62.4714 725.508 62.1523 727.305 62.1523C729.779 62.1523 731.868 62.5951 733.574 63.4805C735.28 64.3659 736.602 65.5833 737.539 67.1328C738.477 68.6693 739.03 70.4206 739.199 72.3867H732.363C732.337 71.319 732.155 70.4271 731.816 69.7109C731.478 68.9818 730.944 68.4349 730.215 68.0703C729.486 67.7057 728.516 67.5234 727.305 67.5234C726.458 67.5234 725.723 67.6797 725.098 67.9922C724.473 68.3047 723.952 68.7995 723.535 69.4766C723.118 70.1536 722.806 71.0326 722.598 72.1133C722.402 73.181 722.305 74.4701 722.305 75.9805V77.5625C722.305 79.0729 722.396 80.362 722.578 81.4297C722.76 82.4974 723.053 83.3698 723.457 84.0469C723.861 84.724 724.382 85.2253 725.02 85.5508C725.671 85.8633 726.465 86.0195 727.402 86.0195C728.444 86.0195 729.323 85.8568 730.039 85.5312C730.755 85.1927 731.309 84.6849 731.699 84.0078C732.09 83.3177 732.298 82.4388 732.324 81.3711Z" fill="white"/>
<path d="M757.051 83.4414C757.051 82.9987 756.986 82.6016 756.855 82.25C756.725 81.8854 756.484 81.5469 756.133 81.2344C755.781 80.9219 755.273 80.6094 754.609 80.2969C753.958 79.9714 753.099 79.6328 752.031 79.2812C750.781 78.8646 749.577 78.3958 748.418 77.875C747.259 77.3411 746.224 76.7227 745.312 76.0195C744.401 75.3034 743.678 74.4701 743.145 73.5195C742.611 72.556 742.344 71.4362 742.344 70.1602C742.344 68.9362 742.617 67.8359 743.164 66.8594C743.711 65.8698 744.473 65.0299 745.449 64.3398C746.439 63.6367 747.598 63.1029 748.926 62.7383C750.254 62.3607 751.706 62.1719 753.281 62.1719C755.365 62.1719 757.201 62.5365 758.789 63.2656C760.391 63.9818 761.641 65.0039 762.539 66.332C763.451 67.6471 763.906 69.2031 763.906 71H757.09C757.09 70.2839 756.94 69.6523 756.641 69.1055C756.354 68.5586 755.918 68.1289 755.332 67.8164C754.746 67.5039 754.01 67.3477 753.125 67.3477C752.266 67.3477 751.543 67.4779 750.957 67.7383C750.371 67.9987 749.928 68.3503 749.629 68.793C749.329 69.2227 749.18 69.6979 749.18 70.2188C749.18 70.6484 749.297 71.0391 749.531 71.3906C749.779 71.7292 750.124 72.0482 750.566 72.3477C751.022 72.6471 751.569 72.9336 752.207 73.207C752.858 73.4805 753.587 73.7474 754.395 74.0078C755.905 74.4896 757.246 75.0299 758.418 75.6289C759.603 76.2148 760.599 76.8854 761.406 77.6406C762.227 78.3828 762.845 79.2292 763.262 80.1797C763.691 81.1302 763.906 82.2044 763.906 83.4023C763.906 84.6784 763.659 85.8112 763.164 86.8008C762.669 87.7904 761.96 88.6302 761.035 89.3203C760.111 89.9974 759.004 90.5117 757.715 90.8633C756.426 91.2148 754.987 91.3906 753.398 91.3906C751.94 91.3906 750.501 91.2083 749.082 90.8438C747.676 90.4661 746.4 89.8932 745.254 89.125C744.108 88.3438 743.19 87.3477 742.5 86.1367C741.823 84.9128 741.484 83.4609 741.484 81.7812H748.359C748.359 82.6146 748.47 83.3177 748.691 83.8906C748.913 84.4635 749.238 84.9258 749.668 85.2773C750.098 85.6159 750.625 85.8633 751.25 86.0195C751.875 86.1628 752.591 86.2344 753.398 86.2344C754.271 86.2344 754.974 86.1107 755.508 85.8633C756.042 85.6029 756.432 85.2643 756.68 84.8477C756.927 84.418 757.051 83.9492 757.051 83.4414Z" fill="white"/>
</svg>
