<svg width="118" height="64" viewBox="0 0 118 64" fill="none" xmlns="http://www.w3.org/2000/svg">
<path d="M91.8814 51.2327L72.6359 43.8451L65.2483 63.0906L47.7524 56.3745L55.14 37.1291L35.8945 29.7414L42.6106 12.2455L61.8561 19.6332L69.2437 0.387695L86.7396 7.10374L79.3519 26.3492L98.5974 33.7369L91.8814 51.2327Z" fill="#D73246"/>
<path d="M9.41016 27.201V29.4861H2.25195V27.201H9.41016ZM3.19922 15.2674V29.4861H0.269531V15.2674H3.19922Z" fill="white"/>
<path d="M22.125 22.0447V22.7186C22.125 23.7993 21.9785 24.7693 21.6855 25.6287C21.3926 26.4881 20.9792 27.2205 20.4453 27.826C19.9115 28.4249 19.2734 28.8839 18.5312 29.2029C17.7956 29.5219 16.9785 29.6814 16.0801 29.6814C15.1882 29.6814 14.3711 29.5219 13.6289 29.2029C12.8932 28.8839 12.2552 28.4249 11.7148 27.826C11.1745 27.2205 10.7546 26.4881 10.4551 25.6287C10.1621 24.7693 10.0156 23.7993 10.0156 22.7186V22.0447C10.0156 20.9575 10.1621 19.9874 10.4551 19.1346C10.748 18.2752 11.1615 17.5428 11.6953 16.9373C12.2357 16.3318 12.8737 15.8696 13.6094 15.5506C14.3516 15.2316 15.1686 15.0721 16.0605 15.0721C16.959 15.0721 17.776 15.2316 18.5117 15.5506C19.2539 15.8696 19.8919 16.3318 20.4258 16.9373C20.9661 17.5428 21.3828 18.2752 21.6758 19.1346C21.9753 19.9874 22.125 20.9575 22.125 22.0447ZM19.166 22.7186V22.0252C19.166 21.27 19.0977 20.6059 18.9609 20.033C18.8242 19.4601 18.6224 18.9783 18.3555 18.5877C18.0885 18.1971 17.763 17.9041 17.3789 17.7088C16.9948 17.507 16.5553 17.4061 16.0605 17.4061C15.5658 17.4061 15.1263 17.507 14.7422 17.7088C14.3646 17.9041 14.0423 18.1971 13.7754 18.5877C13.515 18.9783 13.3164 19.4601 13.1797 20.033C13.043 20.6059 12.9746 21.27 12.9746 22.0252V22.7186C12.9746 23.4673 13.043 24.1313 13.1797 24.7107C13.3164 25.2837 13.5182 25.7687 13.7852 26.1658C14.0521 26.5564 14.3776 26.8527 14.7617 27.0545C15.1458 27.2563 15.5853 27.3572 16.0801 27.3572C16.5749 27.3572 17.0143 27.2563 17.3984 27.0545C17.7826 26.8527 18.1048 26.5564 18.3652 26.1658C18.6257 25.7687 18.8242 25.2837 18.9609 24.7107C19.0977 24.1313 19.166 23.4673 19.166 22.7186Z" fill="white"/>
<path d="M25.5723 15.2674H28.0527L31.7051 25.7068L35.3574 15.2674H37.8379L32.7012 29.4861H30.709L25.5723 15.2674ZM24.2344 15.2674H26.7051L27.1543 25.4432V29.4861H24.2344V15.2674ZM36.7051 15.2674H39.1855V29.4861H36.2559V25.4432L36.7051 15.2674Z" fill="white"/>
<path d="M53.3262 15.2674V29.4861H50.3965L44.6836 19.9549V29.4861H41.7539V15.2674H44.6836L50.4062 24.8084V15.2674H53.3262Z" fill="white"/>
<path d="M57.5547 15.2674L60.5234 21.7518L63.4922 15.2674H66.6855L62.0078 24.3104V29.4861H59.0391V24.3104L54.3516 15.2674H57.5547Z" fill="white"/>
<path d="M74.5176 15.2674V29.4861H71.5977V15.2674H74.5176ZM78.8926 15.2674V17.5623H67.291V15.2674H78.8926Z" fill="white"/>
<path d="M87.8086 25.7654C87.8086 25.5115 87.7695 25.2837 87.6914 25.0818C87.6198 24.8735 87.4831 24.6847 87.2812 24.5154C87.0794 24.3396 86.7962 24.1671 86.4316 23.9979C86.0671 23.8286 85.5951 23.6528 85.0156 23.4705C84.3711 23.2622 83.7591 23.0278 83.1797 22.7674C82.6068 22.507 82.099 22.2042 81.6562 21.8592C81.2201 21.5076 80.875 21.1007 80.6211 20.6385C80.3737 20.1762 80.25 19.6391 80.25 19.0271C80.25 18.4347 80.3802 17.8976 80.6406 17.4158C80.901 16.9275 81.2656 16.5109 81.7344 16.1658C82.2031 15.8143 82.7565 15.5441 83.3945 15.3553C84.0391 15.1665 84.7454 15.0721 85.5137 15.0721C86.5619 15.0721 87.4766 15.2609 88.2578 15.6385C89.0391 16.0161 89.6445 16.5337 90.0742 17.1912C90.5104 17.8488 90.7285 18.6007 90.7285 19.4471H87.8184C87.8184 19.0304 87.7305 18.6658 87.5547 18.3533C87.3854 18.0343 87.125 17.7837 86.7734 17.6014C86.4284 17.4191 85.9922 17.3279 85.4648 17.3279C84.957 17.3279 84.5339 17.4061 84.1953 17.5623C83.8568 17.712 83.6029 17.9171 83.4336 18.1775C83.2643 18.4314 83.1797 18.7179 83.1797 19.0369C83.1797 19.2778 83.2383 19.4959 83.3555 19.6912C83.4792 19.8865 83.6615 20.0688 83.9023 20.2381C84.1432 20.4074 84.4395 20.5669 84.791 20.7166C85.1426 20.8663 85.5495 21.0128 86.0117 21.1561C86.7865 21.3904 87.4668 21.6541 88.0527 21.9471C88.6452 22.24 89.14 22.5688 89.5371 22.9334C89.9342 23.298 90.2337 23.7114 90.4355 24.1736C90.6374 24.6359 90.7383 25.16 90.7383 25.7459C90.7383 26.3644 90.6178 26.9178 90.377 27.4061C90.1361 27.8943 89.7878 28.3077 89.332 28.6463C88.8763 28.9848 88.3327 29.242 87.7012 29.4178C87.0697 29.5936 86.3633 29.6814 85.582 29.6814C84.8789 29.6814 84.1855 29.5903 83.502 29.408C82.8184 29.2192 82.1966 28.936 81.6367 28.5584C81.0833 28.1808 80.6406 27.699 80.3086 27.1131C79.9766 26.5271 79.8105 25.8338 79.8105 25.033H82.75C82.75 25.4757 82.8184 25.8501 82.9551 26.1561C83.0918 26.462 83.2839 26.7094 83.5312 26.8982C83.7852 27.087 84.0846 27.2238 84.4297 27.3084C84.7812 27.393 85.1654 27.4354 85.582 27.4354C86.0898 27.4354 86.5065 27.3637 86.832 27.2205C87.1641 27.0773 87.4082 26.8787 87.5645 26.6248C87.7272 26.3709 87.8086 26.0844 87.8086 25.7654Z" fill="white"/>
<path d="M95.6602 15.2674V29.4861H92.7305V15.2674H95.6602ZM104.176 15.2674L98.541 22.2889L95.2891 25.785L94.7617 23.0115L96.959 20.0037L100.582 15.2674H104.176ZM100.846 29.4861L96.6562 22.9139L98.8242 21.0975L104.312 29.4861H100.846Z" fill="white"/>
<path d="M111.227 17.699L107.359 29.4861H104.244L109.527 15.2674H111.51L111.227 17.699ZM114.439 29.4861L110.562 17.699L110.25 15.2674H112.252L117.564 29.4861H114.439ZM114.264 24.1932V26.4881H106.754V24.1932H114.264Z" fill="white"/>
<path d="M5.80664 47.3677H2.18359V45.0826H5.80664C6.36654 45.0826 6.82227 44.9914 7.17383 44.8091C7.52539 44.6203 7.78255 44.3599 7.94531 44.0279C8.10807 43.6959 8.18945 43.3215 8.18945 42.9048C8.18945 42.4817 8.10807 42.0878 7.94531 41.7232C7.78255 41.3586 7.52539 41.0656 7.17383 40.8443C6.82227 40.6229 6.36654 40.5123 5.80664 40.5123H3.19922V52.4361H0.269531V38.2173H5.80664C6.91992 38.2173 7.8737 38.4192 8.66797 38.8228C9.46875 39.2199 10.0807 39.7701 10.5039 40.4732C10.9271 41.1763 11.1387 41.9804 11.1387 42.8853C11.1387 43.8033 10.9271 44.5975 10.5039 45.2681C10.0807 45.9387 9.46875 46.4563 8.66797 46.8209C7.8737 47.1854 6.91992 47.3677 5.80664 47.3677Z" fill="white"/>
<path d="M22.7012 50.1509V52.4361H15.1328V50.1509H22.7012ZM16.0898 38.2173V52.4361H13.1602V38.2173H16.0898ZM21.7148 44.0084V46.2349H15.1328V44.0084H21.7148ZM22.6914 38.2173V40.5123H15.1328V38.2173H22.6914Z" fill="white"/>
<path d="M33.5508 50.1509V52.4361H26.3926V50.1509H33.5508ZM27.3398 38.2173V52.4361H24.4102V38.2173H27.3398Z" fill="white"/>
<path d="M34.5664 38.2173L37.5352 44.7017L40.5039 38.2173H43.6973L39.0195 47.2603V52.4361H36.0508V47.2603L31.3633 38.2173H34.5664Z" fill="white"/>
<path d="M56.5684 38.2173V52.4361H53.6387L47.9258 42.9048V52.4361H44.9961V38.2173H47.9258L53.6484 47.7584V38.2173H56.5684Z" fill="white"/>
<path d="M70.7969 44.9947V45.6685C70.7969 46.7492 70.6504 47.7193 70.3574 48.5787C70.0645 49.438 69.651 50.1705 69.1172 50.7759C68.5833 51.3749 67.9453 51.8339 67.2031 52.1529C66.4674 52.4719 65.6504 52.6314 64.752 52.6314C63.86 52.6314 63.043 52.4719 62.3008 52.1529C61.5651 51.8339 60.9271 51.3749 60.3867 50.7759C59.8464 50.1705 59.4264 49.438 59.127 48.5787C58.834 47.7193 58.6875 46.7492 58.6875 45.6685V44.9947C58.6875 43.9074 58.834 42.9374 59.127 42.0845C59.4199 41.2251 59.8333 40.4927 60.3672 39.8873C60.9076 39.2818 61.5456 38.8195 62.2812 38.5005C63.0234 38.1815 63.8405 38.022 64.7324 38.022C65.6309 38.022 66.4479 38.1815 67.1836 38.5005C67.9258 38.8195 68.5638 39.2818 69.0977 39.8873C69.638 40.4927 70.0547 41.2251 70.3477 42.0845C70.6471 42.9374 70.7969 43.9074 70.7969 44.9947ZM67.8379 45.6685V44.9751C67.8379 44.2199 67.7695 43.5559 67.6328 42.983C67.4961 42.41 67.2943 41.9283 67.0273 41.5376C66.7604 41.147 66.4349 40.8541 66.0508 40.6587C65.6667 40.4569 65.2272 40.356 64.7324 40.356C64.2376 40.356 63.7982 40.4569 63.4141 40.6587C63.0365 40.8541 62.7142 41.147 62.4473 41.5376C62.1868 41.9283 61.9883 42.41 61.8516 42.983C61.7148 43.5559 61.6465 44.2199 61.6465 44.9751V45.6685C61.6465 46.4172 61.7148 47.0813 61.8516 47.6607C61.9883 48.2336 62.1901 48.7186 62.457 49.1158C62.724 49.5064 63.0495 49.8026 63.4336 50.0044C63.8177 50.2063 64.2572 50.3072 64.752 50.3072C65.2467 50.3072 65.6862 50.2063 66.0703 50.0044C66.4544 49.8026 66.7767 49.5064 67.0371 49.1158C67.2975 48.7186 67.4961 48.2336 67.6328 47.6607C67.7695 47.0813 67.8379 46.4172 67.8379 45.6685Z" fill="white"/>
</svg>
